<svg width="310" height="23" viewBox="0 0 310 23" fill="none" xmlns="http://www.w3.org/2000/svg">
<line y1="-0.5" x2="309" y2="-0.5" transform="matrix(1 0 0 -1 0.773438 0.242188)" stroke="url(#paint0_linear_2837_56223)"/>
<path d="M246.199 21.8699L246.199 21.8701C246.892 22.3767 247.805 22.6322 248.722 22.6322C249.639 22.6322 250.552 22.3767 251.245 21.8701C251.245 21.8701 251.245 21.8701 251.245 21.8701L274.579 4.78193L274.578 4.78168L274.584 4.77813C275.735 4.08584 276.606 3.49697 277.245 2.99668C277.884 2.49559 278.286 2.08658 278.501 1.75486C278.717 1.42306 278.737 1.1843 278.647 1.0081C278.554 0.825291 278.33 0.680423 277.988 0.572281C277.307 0.357064 276.236 0.31039 275.124 0.319182C274.569 0.323565 274.008 0.341632 273.483 0.35864L273.466 0.359176C272.948 0.375963 272.466 0.391588 272.065 0.391588C271.444 0.391588 269.564 0.3943 266.888 0.39816C255.639 0.414383 230.33 0.450884 225.378 0.391583C223.844 0.37322 222.542 0.35954 221.544 0.4209C221.045 0.451576 220.625 0.500868 220.292 0.576838C219.957 0.653219 219.718 0.754623 219.575 0.883121C219.437 1.00656 219.383 1.15759 219.42 1.35525C219.459 1.56003 219.597 1.81687 219.856 2.13654C220.373 2.77463 221.349 3.63257 222.866 4.78267C225.901 7.08268 231.734 11.3543 236.809 15.0513C239.346 16.8997 241.694 18.6044 243.407 19.8469C244.264 20.4682 244.962 20.9739 245.445 21.3244L246.004 21.7285L246.149 21.8339L246.186 21.8608L246.196 21.8676L246.198 21.8693L246.199 21.8697C246.199 21.8698 246.199 21.8699 246.156 21.929L246.199 21.8699Z" fill="#AC4FC6" stroke="url(#paint1_linear_2837_56223)" stroke-width="0.151993"/>
<defs>
<linearGradient id="paint0_linear_2837_56223" x1="309" y1="0" x2="2.20189" y2="-8.55355e-06" gradientUnits="userSpaceOnUse">
<stop stop-color="#AC4FC6" stop-opacity="0.07"/>
<stop offset="0.203125" stop-color="#AC4FC6"/>
<stop offset="0.505208" stop-color="#AC4FC6"/>
<stop offset="0.604167" stop-color="#AC4FC6"/>
<stop offset="0.802083" stop-color="#AC4FC6"/>
<stop offset="1" stop-color="#AC4FC6" stop-opacity="0"/>
</linearGradient>
<linearGradient id="paint1_linear_2837_56223" x1="219.333" y1="0.242187" x2="278.35" y2="0.242187" gradientUnits="userSpaceOnUse">
<stop stop-color="#AC4FC6" stop-opacity="0.07"/>
<stop offset="0.203125" stop-color="#AC4FC6"/>
<stop offset="0.505208" stop-color="#AC4FC6"/>
<stop offset="0.604167" stop-color="#AC4FC6"/>
<stop offset="0.802083" stop-color="#AC4FC6"/>
<stop offset="1" stop-color="#AC4FC6" stop-opacity="0"/>
</linearGradient>
</defs>
</svg>