<svg width="314" height="300" viewBox="0 0 314 300" fill="none" xmlns="http://www.w3.org/2000/svg">
<path d="M108.168 268.319C107.823 268.072 74.3189 243.733 73.1364 242.846C73.0871 242.796 72.9886 242.747 72.89 242.747C72.7422 242.747 72.5451 242.796 72.4466 242.895C72.348 242.993 72.1509 243.289 72.2988 243.585C72.7422 244.915 78.9996 264.279 79.0982 264.476C79.9358 267.284 80.6256 268.072 81.2661 268.565C81.7588 268.959 82.7442 269.403 85.3063 269.353H107.873C108.316 269.353 108.365 269.156 108.415 269.058C108.562 268.565 108.217 268.27 108.217 268.27L108.168 268.319Z" fill="white"/>
<path d="M62.641 279.013C61.3107 274.775 45.8888 227.327 45.3468 225.701C44.7555 223.927 45.6424 222.006 47.3669 221.316C47.564 221.217 48.0075 221.07 56.3343 218.409L61.9019 216.586C68.2086 214.517 72.1503 217.424 75.3037 219.69H75.353L85.355 226.982C104.127 240.581 143.101 268.912 145.022 270.292C145.367 270.538 145.959 270.538 146.402 270.292C146.648 270.144 146.993 269.897 146.993 269.06C146.993 265.364 146.993 195.744 146.993 177.81C135.661 181.505 103.388 191.95 95.16 194.66C95.702 195.054 96.441 195.596 97.3772 196.237C100.531 198.503 104.817 201.657 105.507 202.1C105.605 202.15 105.753 202.297 105.95 202.199C106.788 201.952 132.163 193.675 132.409 193.576L136.4 192.295V250.731L131.621 247.233C131.128 246.839 80.3786 209.984 76.5848 207.224C73.9734 205.352 71.4605 204.12 68.3072 204.12C66.9276 204.12 65.4002 204.367 63.6757 204.909C56.0879 207.323 36.5273 213.679 33.3739 214.714C31.8465 215.206 31.206 216.389 31.6987 217.867C31.9943 218.754 34.4579 226.342 37.6605 236.196C44.0165 255.707 52.6882 282.363 53.7722 285.812C57.0733 296.11 62.3453 299.953 73.0865 299.953C75.8949 299.953 138.666 299.953 147.092 299.953V289.31H78.3092C67.913 289.261 65.1045 286.058 62.7888 278.914L62.641 279.013Z" fill="white"/>
<path d="M135.168 51.1317C135.168 51.1317 176.999 51.1317 178.477 51.1317C178.674 51.1317 178.921 50.8853 179.019 50.5897C179.019 50.4912 179.019 50.1462 178.724 49.9491C177.787 49.2594 166.701 41.1789 160.937 36.9908C158.621 35.2171 157.537 34.9707 156.749 34.9707C156.108 34.9707 155.073 35.1678 153.004 36.6952L134.774 49.9491C134.429 50.1955 134.478 50.3926 134.527 50.5404C134.675 51.0331 135.118 51.0331 135.168 51.0331V51.1317Z" fill="white"/>
<path d="M176.162 103.014C176.162 103.014 175.867 103.063 175.768 103.162C175.276 103.851 160.051 124.792 159.41 125.679L156.947 129.078L122.555 81.8272H128.517C129.158 81.8272 191.88 81.8272 196.561 81.8272C201.143 81.8272 204.937 80.8418 208.386 76.1118C213.067 69.7558 225.236 53.0035 227.158 50.3429C228.094 49.0619 227.897 47.7315 226.616 46.7954C223.857 44.7753 173.206 8.01897 168.821 4.81634C160.051 -1.58891 153.596 -1.58893 144.875 4.71778C142.559 6.393 91.8102 43.2971 85.0107 48.2242L91.2682 56.8467L146.895 16.3951C155.37 10.384 159.509 11.3201 165.618 15.7053C169.56 18.6123 210.455 48.3228 210.948 48.6677C212.475 49.7517 212.869 51.7718 211.884 53.3485C211.736 53.5948 210.504 55.27 203.311 65.2228L202.966 65.7155C199.074 71.0861 194.245 71.0861 190.353 71.0861H190.205C184.834 71.0861 107.134 71.0861 104.128 71.0861C103.685 71.0861 103.241 71.431 102.995 71.8744C102.847 72.1208 102.748 72.5642 103.192 73.254C105.36 76.2103 146.304 132.527 156.848 147.062C163.845 137.405 183.799 109.961 188.874 102.965C181.139 102.965 176.803 102.965 176.113 102.965L176.162 103.014Z" fill="white"/>
<path d="M207.4 53.6445C207.4 53.6445 207.498 53.6938 207.498 53.7431C207.498 53.7431 207.449 53.6938 207.4 53.6445Z" fill="white"/>
<path d="M55.7929 108.041C55.7929 108.041 55.645 108.041 55.5465 108.041C55.4479 108.041 55.2509 108.041 55.1523 108.189C53.9698 109.026 37.5132 120.999 37.3654 121.098C34.9511 122.773 34.4092 123.709 34.1628 124.448C33.9657 125.04 33.8179 126.074 34.6555 128.538L41.652 149.971C41.7998 150.414 41.9969 150.414 42.0955 150.414C42.6375 150.414 42.7853 149.971 42.7853 149.971C42.9824 149.429 55.7436 110.209 56.187 108.829C56.2363 108.632 56.1377 108.337 55.8421 108.14L55.7929 108.041Z" fill="white"/>
<path d="M13.3701 127.945C10.2168 117.993 12.3355 114.494 18.4944 109.912C21.0565 108.089 43.6226 91.6818 55.7434 82.9116C62.1486 78.2801 63.5282 77.2454 63.8731 76.999C64.5629 76.5063 65.4005 76.26 66.2874 76.3093C67.2235 76.4078 68.0612 76.8512 68.6524 77.541C68.8002 77.7381 69.4407 78.625 74.023 84.9317L77.6198 89.8588C81.5122 95.2294 80.0341 99.8116 78.8023 103.556V103.655C77.1271 108.68 53.0827 182.784 52.1958 185.543C52.048 185.938 52.1958 186.529 52.59 186.874C52.7871 187.071 53.1812 187.317 53.9203 187.071C57.4186 185.938 123.639 164.357 140.687 158.838C129.847 143.909 113.194 120.998 108.661 114.79C107.478 118.485 105.015 126.024 104.719 126.911C104.719 127.059 104.67 127.206 104.719 127.354C105.212 128.044 120.929 149.625 121.077 149.871L123.54 153.271L67.9626 171.353L69.8349 165.687C70.032 165.096 89.4449 105.428 90.8737 100.994C92.2533 96.609 92.4997 92.7165 89.0507 87.9865C84.4192 81.532 72.3477 64.8783 70.3276 62.1684C69.7856 61.3801 69.0466 61.0352 68.3075 61.0352C67.8148 61.0352 67.2728 61.2322 66.7801 61.5771C66.1888 61.9713 62.1486 64.9276 56.4332 69.1156C41.0113 80.3495 12.2862 101.24 8.98502 103.605C0.214745 109.961 -1.8054 116.12 1.49577 126.369C2.38266 129.079 21.7955 188.746 24.4069 196.728L34.5075 193.427L13.2223 127.995L13.3701 127.945Z" fill="white"/>
<path d="M240.954 242.745C240.609 242.991 207.105 267.331 205.972 268.169C205.775 268.317 205.725 268.612 205.824 268.908C205.824 269.056 206.07 269.302 206.415 269.302C207.844 269.302 228.193 269.302 228.39 269.302C231.346 269.351 232.332 268.957 232.972 268.464C233.465 268.12 234.204 267.331 234.992 264.868L241.94 243.385C242.087 242.991 241.94 242.843 241.841 242.794C241.398 242.449 241.053 242.745 241.004 242.745H240.954Z" fill="white"/>
<path d="M251.793 277.729C248.492 287.583 244.6 289.258 237.061 289.307C232.775 289.307 182.912 289.307 180.99 289.307C180.202 289.307 179.315 289.012 178.675 288.47C177.985 287.879 177.541 287.041 177.443 286.105V286.006C177.443 286.006 177.443 284.43 177.443 275.462V270.831C177.443 264.179 181.385 261.371 184.538 259.055H184.637C185.573 258.316 192.569 253.192 201.783 246.491C222.033 231.808 252.582 209.587 254.257 208.355C254.602 208.109 254.799 207.567 254.7 207.074C254.7 206.778 254.503 206.384 253.715 206.088C250.216 204.955 183.996 183.473 166.899 177.905C166.899 196.382 166.899 224.664 166.899 232.35C170.003 230.083 176.408 225.452 177.246 224.861C177.344 224.811 177.443 224.664 177.443 224.467C177.443 223.629 177.443 196.678 177.443 196.678V192.49L233.021 210.523L228.192 214.021C227.7 214.415 176.95 251.221 173.156 253.98C169.461 256.69 166.998 259.695 166.948 265.559C166.948 273.393 166.899 293.89 166.948 297.437C166.948 299.063 167.884 299.999 169.461 299.999H175.965C192.471 299.999 236.371 299.999 240.855 299.999C240.855 299.999 240.954 299.999 241.003 299.999C251.744 299.999 256.967 296.205 260.317 285.957C261.204 283.247 280.42 223.925 283.13 215.548L273.029 212.247L251.793 277.679V277.729Z" fill="white"/>
<path d="M271.699 150.067C271.699 150.067 272.093 149.919 272.192 149.623C272.537 148.49 276.823 135.482 278.991 128.683C279.977 125.924 279.878 124.84 279.632 124.101C279.435 123.509 278.942 122.573 276.823 121.046L258.593 107.792C258.248 107.546 258.051 107.644 258.002 107.693C257.558 108.038 257.706 108.433 257.706 108.482C257.903 109.172 270.615 148.244 271.059 149.672C271.108 149.87 271.404 150.017 271.749 150.017L271.699 150.067Z" fill="white"/>
<path d="M304.809 103.458C302.543 101.832 251.744 64.9281 244.895 60.001L238.638 68.6234L294.314 109.026C302.691 115.234 303.085 119.324 300.769 126.616C299.882 129.276 293.181 149.921 288.254 164.998C284.509 176.577 283.623 179.188 283.426 179.878C283.179 180.715 282.637 181.405 281.898 181.849C281.11 182.341 280.124 182.489 279.237 182.243C279.09 182.243 278.745 182.095 271.798 179.829C269.334 179.04 266.723 178.153 264.752 177.562C258.445 175.542 256.967 170.91 255.735 167.215V167.117C253.616 160.761 229.966 87.987 229.079 85.2278C228.932 84.8337 228.488 84.4888 227.995 84.3902C227.7 84.3902 227.256 84.3902 226.813 85.0307C224.645 88.0363 183.75 144.353 173.206 158.888C190.746 164.604 217.648 173.325 224.99 175.739C224.891 175.394 224.743 175 224.645 174.606C223.413 170.812 221.344 164.456 221.048 163.569C221.048 163.52 220.95 163.323 220.753 163.273C219.915 163.027 195.329 155.045 194.294 154.7L190.303 153.419L224.645 106.119L226.468 111.785C226.665 112.376 246.029 172.044 247.458 176.478C248.886 180.863 251.005 184.115 256.573 185.938C263.963 188.402 283.623 194.807 286.874 195.792C288.402 196.285 289.634 195.694 290.126 194.216C291.063 191.309 310.525 131.296 312.2 126.271C315.55 115.973 313.579 109.814 304.858 103.458H304.809Z" fill="white"/>
</svg>
