<svg width="21" height="21" viewBox="0 0 21 21" fill="none" xmlns="http://www.w3.org/2000/svg">
<g id="&#240;&#159;&#166;&#134; icon &#34;Globe&#34;">
<path id="Vector" d="M13.8298 6.3408C13.2339 2.67066 11.8283 0.09375 10.1926 0.09375C8.55682 0.09375 7.15123 2.67066 6.55529 6.3408H13.8298ZM6.24705 10.2863C6.24705 11.1987 6.29637 12.0741 6.38268 12.9166H13.9983C14.0846 12.0741 14.134 11.1987 14.134 10.2863C14.134 9.37391 14.0846 8.4985 13.9983 7.65597H6.38268C6.29637 8.4985 6.24705 9.37391 6.24705 10.2863ZM19.5919 6.3408C18.4165 3.55018 16.0368 1.39248 13.0983 0.52118C14.1011 1.91033 14.7915 4.00227 15.1532 6.3408H19.5919ZM7.28275 0.52118C4.34828 1.39248 1.96453 3.55018 0.793211 6.3408H5.2319C5.58947 4.00227 6.27993 1.91033 7.28275 0.52118ZM20.0317 7.65597H15.3176C15.4039 8.51905 15.4532 9.40268 15.4532 10.2863C15.4532 11.1699 15.4039 12.0536 15.3176 12.9166H20.0275C20.2536 12.0741 20.381 11.1987 20.381 10.2863C20.381 9.37391 20.2536 8.4985 20.0317 7.65597ZM4.93188 10.2863C4.93188 9.40268 4.9812 8.51905 5.06751 7.65597H0.353452C0.131517 8.4985 0 9.37391 0 10.2863C0 11.1987 0.131517 12.0741 0.353452 12.9166H5.0634C4.9812 12.0536 4.93188 11.1699 4.93188 10.2863ZM6.55529 14.2318C7.15123 17.902 8.55682 20.4789 10.1926 20.4789C11.8283 20.4789 13.2339 17.902 13.8298 14.2318H6.55529ZM13.1024 20.0514C16.0368 19.1801 18.4206 17.0224 19.596 14.2318H15.1573C14.7956 16.5703 14.1052 18.6623 13.1024 20.0514ZM0.793211 14.2318C1.96864 17.0224 4.34828 19.1801 7.28686 20.0514C6.28404 18.6623 5.59358 16.5703 5.2319 14.2318H0.793211Z" fill="white"/>
</g>
</svg>
