<svg width="400" height="126" viewBox="0 0 400 126" fill="none" xmlns="http://www.w3.org/2000/svg">
<path d="M313.884 112.16C313.737 112.062 299.75 101.875 299.243 101.514C299.21 101.498 299.177 101.481 299.128 101.481C299.062 101.481 298.997 101.498 298.931 101.547C298.882 101.58 298.817 101.711 298.866 101.842C299.046 102.399 301.666 110.489 301.699 110.571V110.604C302.06 111.75 302.338 112.094 302.616 112.275C302.829 112.422 303.239 112.635 304.303 112.602H313.737C313.934 112.602 313.95 112.52 313.966 112.471C314.032 112.258 313.884 112.144 313.884 112.144V112.16Z" fill="#FFFFFF"/>
<path d="M294.854 116.632C294.297 114.863 287.86 95.0294 287.631 94.3415V94.3088C287.385 93.5882 287.746 92.802 288.466 92.5072C288.564 92.4744 288.728 92.4089 292.2 91.2789L294.526 90.5255C297.163 89.6738 298.801 90.8694 300.127 91.8357H300.16L304.336 94.882C312.181 100.582 328.478 112.423 329.28 112.98C329.428 113.078 329.673 113.094 329.853 112.996C329.968 112.947 330.115 112.832 330.115 112.488C330.115 110.949 330.115 81.8288 330.115 74.3276C325.366 75.8672 311.903 80.2401 308.464 81.3702C308.693 81.5339 309.004 81.7632 309.381 82.0417C310.691 82.9916 312.493 84.3018 312.771 84.4984C312.804 84.5311 312.869 84.5802 312.951 84.5475C313.295 84.4328 323.908 80.9771 324.006 80.9443L325.677 80.4039V104.84L323.679 103.366C323.466 103.202 302.256 87.7903 300.668 86.6439C299.587 85.8741 298.522 85.35 297.196 85.35C296.606 85.35 295.967 85.4483 295.263 85.6776C292.086 86.693 283.913 89.3463 282.586 89.7721C281.948 89.985 281.686 90.4763 281.899 91.0987C282.013 91.459 283.045 94.6363 284.388 98.7472C287.041 106.887 290.677 118.057 291.136 119.482C292.528 123.789 294.706 125.394 299.21 125.394C300.389 125.394 326.627 125.394 330.148 125.394V120.956H301.388C297.048 120.939 295.869 119.596 294.886 116.599L294.854 116.632Z" fill="#FFFFFF"/>
<path d="M325.169 21.3559C325.169 21.3559 342.644 21.3559 343.266 21.3559C343.365 21.3559 343.463 21.2576 343.496 21.1266C343.496 21.0938 343.496 20.9464 343.381 20.8645C342.988 20.5697 338.353 17.1958 335.946 15.4598C334.963 14.7228 334.537 14.6245 334.209 14.6245C333.947 14.6245 333.505 14.7064 332.637 15.3451L325.005 20.8973C324.858 21.0119 324.874 21.0938 324.89 21.1266C324.956 21.3395 325.152 21.3395 325.152 21.3395L325.169 21.3559Z" fill="#FFFFFF"/>
<path d="M342.317 43.0558C342.317 43.0558 342.186 43.0721 342.153 43.1213C341.94 43.4161 335.585 52.1619 335.323 52.5386L334.292 53.9471L319.912 34.1953H322.418C322.68 34.1953 348.901 34.1953 350.85 34.1953C352.766 34.1953 354.355 33.7694 355.796 31.8041C357.745 29.1345 362.838 22.1411 363.641 21.0273C364.034 20.4869 363.952 19.93 363.412 19.5533C362.249 18.718 341.088 3.35548 339.254 2.01249C335.602 -0.657127 332.883 -0.6735 329.247 1.97974C328.281 2.68399 307.071 18.1121 304.222 20.1757L306.842 23.7789L330.099 6.86037C333.636 4.33816 335.373 4.73124 337.927 6.58195C339.582 7.79392 356.664 20.2084 356.877 20.3722C357.516 20.8144 357.679 21.6825 357.27 22.3376C357.204 22.4359 356.697 23.1401 353.683 27.3001L353.536 27.513C351.914 29.7568 349.883 29.7568 348.262 29.7568H348.213C345.969 29.7568 313.475 29.7568 312.23 29.7568C312.05 29.7568 311.854 29.9042 311.755 30.0844C311.706 30.199 311.641 30.3792 311.854 30.6576C312.755 31.9023 329.87 55.4375 334.292 61.5138C337.223 57.4684 345.56 46.0202 347.689 43.0885C344.446 43.0885 342.644 43.0885 342.35 43.0885L342.317 43.0558Z" fill="#FFFFFF"/>
<path d="M355.37 22.4067C355.37 22.4067 355.401 22.4221 355.416 22.4374C355.416 22.4374 355.385 22.4221 355.37 22.4067Z" fill="#FFFFFF"/>
<path d="M292.003 45.1506C292.003 45.1506 291.954 45.1343 291.905 45.1343C291.856 45.1343 291.791 45.1343 291.725 45.1834C291.234 45.5273 284.355 50.5227 284.289 50.5718C283.274 51.276 283.045 51.6527 282.946 51.9803C282.864 52.2096 282.799 52.6682 283.159 53.7L286.075 62.6587C286.14 62.8389 286.222 62.8389 286.271 62.8389C286.484 62.8389 286.55 62.6587 286.55 62.6587C286.615 62.4295 291.971 46.0351 292.151 45.4455C292.167 45.3636 292.134 45.2325 292.003 45.1506Z" fill="#FFFFFF"/>
<path d="M274.266 53.4678C272.956 49.2914 273.824 47.8338 276.412 45.9339C277.493 45.1642 286.91 38.3182 291.987 34.6495C294.657 32.7005 295.246 32.291 295.394 32.1764C295.672 31.9635 296.032 31.8652 296.393 31.898C296.786 31.9307 297.13 32.1273 297.375 32.4221C297.441 32.504 297.703 32.8643 299.619 35.5011L301.11 37.5648C302.747 39.8086 302.109 41.7412 301.617 43.2807V43.3298C300.913 45.4426 290.857 76.4134 290.497 77.5599C290.448 77.7236 290.513 77.9693 290.66 78.1167C290.742 78.1986 290.906 78.3132 291.217 78.1986C292.675 77.7236 320.354 68.7157 327.495 66.39C322.958 60.15 316.014 50.5853 314.114 47.9648C313.606 49.5043 312.591 52.6489 312.476 53.042C312.46 53.1075 312.443 53.173 312.476 53.2221C312.689 53.5169 319.256 62.5412 319.322 62.6231L320.354 64.0316L297.13 71.5983L297.9 69.2235C297.981 68.9778 306.089 44.0505 306.678 42.1834C307.268 40.349 307.35 38.7276 305.925 36.7459C303.976 34.0435 298.931 27.0829 298.112 25.9528C297.883 25.6252 297.588 25.4614 297.277 25.4614C297.064 25.4614 296.851 25.5433 296.638 25.6907C296.393 25.8709 294.706 27.0992 292.315 28.8353C285.862 33.5358 273.857 42.2653 272.481 43.2479C268.812 45.9012 267.961 48.4725 269.353 52.7636C269.729 53.8936 277.837 78.8373 278.917 82.1784L283.143 80.8027L274.233 53.4514L274.266 53.4678Z" fill="#FFFFFF"/>
<path d="M369.406 101.442C369.258 101.541 355.255 111.711 354.78 112.072C354.698 112.137 354.665 112.268 354.715 112.383C354.731 112.432 354.829 112.53 354.96 112.53C355.55 112.53 364.066 112.53 364.148 112.53C365.377 112.563 365.786 112.383 366.065 112.186C366.277 112.039 366.589 111.711 366.9 110.68L369.815 101.704C369.864 101.524 369.815 101.475 369.766 101.459C369.586 101.328 369.422 101.426 369.422 101.426L369.406 101.442Z" fill="#FFFFFF"/>
<path d="M373.943 116.09C372.567 120.201 370.929 120.905 367.785 120.921C366 120.921 345.15 120.905 344.348 120.905C344.004 120.905 343.66 120.79 343.382 120.561C343.087 120.315 342.907 119.955 342.874 119.562V119.529C342.874 119.431 342.874 118.874 342.874 115.124V113.175C342.874 110.407 344.512 109.211 345.838 108.261L345.887 108.228C346.281 107.95 349.212 105.821 353.061 103.02C361.512 96.8784 374.303 87.5921 374.991 87.068C375.122 86.9697 375.204 86.7404 375.171 86.5275C375.155 86.3965 375.089 86.2327 374.762 86.1181C373.304 85.6431 345.609 76.668 338.468 74.3423C338.468 82.0563 338.468 93.8812 338.468 97.1077C339.778 96.1578 342.448 94.2252 342.792 93.9631C342.825 93.9304 342.874 93.8813 342.874 93.7994C342.874 93.439 342.874 82.171 342.874 82.171V80.4185L366.114 87.9524L364.1 89.4264C363.887 89.5738 342.677 104.969 341.089 106.132C339.533 107.262 338.501 108.523 338.501 110.964C338.501 114.239 338.485 122.805 338.485 124.295C338.485 124.967 338.878 125.376 339.533 125.376H342.252C349.163 125.376 367.506 125.376 369.39 125.376C369.406 125.376 369.423 125.376 369.455 125.376C373.943 125.376 376.138 123.787 377.53 119.513C377.89 118.383 385.932 93.5701 387.078 90.0815L382.853 88.7058L373.976 116.057L373.943 116.09Z" fill="#FFFFFF"/>
<path d="M382.246 62.7046C382.246 62.7046 382.41 62.6391 382.443 62.5244V62.4917C382.607 62.0495 384.376 56.5956 385.293 53.7786C385.702 52.6157 385.653 52.1735 385.555 51.8623C385.473 51.6167 385.276 51.2236 384.376 50.6012L376.743 45.0655C376.596 44.9508 376.53 45 376.498 45.0327C376.318 45.1637 376.367 45.3439 376.367 45.3603C376.465 45.6387 381.755 61.9839 381.952 62.5735C381.968 62.6554 382.099 62.721 382.23 62.721L382.246 62.7046Z" fill="#FFFFFF"/>
<path d="M396.085 43.2316C395.135 42.5437 373.909 27.132 371.043 25.0684L368.439 28.6715L391.712 45.5572C395.217 48.1613 395.381 49.8483 394.398 52.911C394.022 54.0247 391.221 62.6559 389.174 68.9614C387.601 73.7929 387.241 74.8902 387.143 75.185C387.045 75.529 386.815 75.8238 386.504 76.0203C386.16 76.2169 385.767 76.2824 385.39 76.1841C385.325 76.1677 385.177 76.1186 382.279 75.185C381.247 74.8575 380.149 74.4972 379.33 74.2351C376.694 73.3835 376.071 71.4509 375.564 69.9113V69.8622C374.679 67.209 364.803 36.795 364.41 35.6322C364.361 35.4684 364.164 35.321 363.952 35.2882C363.821 35.2718 363.64 35.2882 363.444 35.5503C362.543 36.795 345.428 60.3629 341.022 66.4228C348.36 68.814 359.611 72.4663 362.674 73.4654C362.625 73.318 362.576 73.1706 362.527 73.0068C362.019 71.4181 361.151 68.7649 361.02 68.3882C361.02 68.3554 360.987 68.2899 360.905 68.2571C360.561 68.1425 350.276 64.8014 349.834 64.6704L348.163 64.1299L362.51 44.3616L363.28 46.7364C363.362 46.9821 371.453 71.9258 372.059 73.7765C372.665 75.5945 373.549 76.9702 375.858 77.74C378.954 78.7554 387.176 81.4414 388.519 81.8673C389.157 82.0802 389.665 81.8345 389.862 81.2121C390.255 80.0002 398.378 54.9255 399.082 52.8127C400.491 48.5217 399.656 45.9339 396.02 43.2807L396.085 43.2316Z" fill="#FFFFFF"/>
<path d="M393.088 122.6H391.925V115.803C392.335 115.738 393.072 115.672 393.629 115.672C395.414 115.672 396.396 116.458 396.396 117.9C396.396 118.899 395.84 119.619 395.037 119.914L397.084 122.6H395.676L393.858 120.176H393.088V122.6ZM393.088 119.226H393.661C394.595 119.226 395.184 118.833 395.184 117.949C395.184 117.163 394.644 116.704 393.612 116.704C393.481 116.704 393.203 116.704 393.088 116.721V119.226Z" fill="#FFFFFF"/>
<path d="M393.858 125.417C390.468 125.417 387.716 122.666 387.716 119.276C387.716 115.885 390.468 113.134 393.858 113.134C397.248 113.134 400 115.885 400 119.276C400 122.666 397.248 125.417 393.858 125.417ZM393.858 114.166C391.041 114.166 388.748 116.459 388.748 119.276C388.748 122.093 391.041 124.385 393.858 124.385C396.675 124.385 398.968 122.093 398.968 119.276C398.968 116.459 396.675 114.166 393.858 114.166Z" fill="#FFFFFF"/>
<path d="M0.0163784 125.006V105.156H10.1707V106.957H2.08V114.147H9.43373V115.982H2.08V125.006H0H0.0163784Z" fill="#FFFFFF"/>
<path d="M41.0112 125.006H38.9312V105.156H41.0112V125.006Z" fill="#FFFFFF"/>
<path d="M83.6587 121.993V105.14H85.6568V124.99H83.5768L71.7519 108.17V124.99H69.7538V105.14H71.8993L77.91 113.739L83.6587 121.977V121.993Z" fill="#FFFFFF"/>
<path d="M118.626 119.519L116.546 125.006H114.401L122.082 105.156H124.719L132.515 125.006H130.304L128.224 119.519H118.593H118.626ZM123.408 106.81L119.265 117.767H127.585L123.408 106.81Z" fill="#FFFFFF"/>
<path d="M175.195 121.993V105.14H177.193V124.99H175.113L163.288 108.17V124.99H161.29V105.14H163.436L169.446 113.739L175.195 121.977V121.993Z" fill="#FFFFFF"/>
<path d="M221.692 108.735C220.251 107.36 218.286 106.688 216.173 106.688C211.702 106.688 208.05 109.964 208.05 115.074C208.05 120.184 211.685 123.459 216.173 123.459C218.286 123.459 220.349 122.82 221.791 121.494V123.869C220.218 124.802 218.22 125.343 216.206 125.343C210.195 125.343 205.937 121.166 205.937 115.074C205.937 108.981 210.49 104.805 216.206 104.805C218.204 104.805 220.087 105.345 221.692 106.311V108.719V108.735Z" fill="#FFFFFF"/>
<path d="M261.966 123.189V124.99H250.534V105.14H261.835V106.942H252.614V113.968H261.246V115.769H252.614V123.189H261.966Z" fill="#FFFFFF"/>
<path d="M261.966 86.9036V90.0154C261.966 90.3757 261.622 90.3921 261.622 90.3921H239.889C235.336 90.3921 231.634 86.6907 231.634 82.1376V54.0493C231.634 54.0493 231.552 53.4597 232.126 53.7054L235.925 55.0975C235.925 55.0975 236.253 55.2122 236.253 55.5397V82.2031C236.253 84.5943 238.186 86.5269 240.577 86.5269H261.557C261.557 86.5269 261.966 86.4941 261.95 86.9036H261.966Z" fill="#FFFFFF"/>
<path d="M0.0153809 86.9344V90.0462C0.0153809 90.4065 0.359317 90.4229 0.359317 90.4229H22.0929C26.646 90.4229 30.3474 86.7214 30.3474 82.1684V54.0801C30.3474 54.0801 30.4293 53.4905 29.8561 53.7362L26.0564 55.1283C26.0564 55.1283 25.7288 55.2429 25.7288 55.5705V82.2339C25.7288 84.625 23.7962 86.5576 21.405 86.5576H0.424831C0.424831 86.5576 0.0153781 86.5249 0.0317561 86.9344H0.0153809Z" fill="#FFFFFF"/>
<path d="M140.883 88.6224V53.8192C140.883 53.8192 140.883 53.6554 140.719 53.6554H135.396C135.396 53.6554 135.2 53.6554 135.102 53.8028L114.957 84.5607L95.2703 53.9011C95.2703 53.9011 95.1229 53.6554 94.779 53.6554H89.407C89.407 53.6554 89.0467 53.639 89.0467 53.983V90.1292C89.0467 90.424 89.3251 90.4076 89.3251 90.4076H93.4851C93.7144 90.4076 93.7144 90.162 93.7144 90.162V60.616L112.844 90.0473C112.844 90.0473 113.024 90.3749 113.417 90.3749H116.611C116.611 90.3749 116.971 90.3749 117.151 90.0473L136.215 60.8126V90.1292C136.215 90.424 136.494 90.4076 136.494 90.4076H140.654C140.883 90.4076 140.883 90.162 140.883 90.162V88.606V88.6224Z" fill="#FFFFFF"/>
<path d="M84.0023 90.0812L60.4999 53.9022L60.4507 53.8203C60.4507 53.8203 60.3361 53.6401 60.1068 53.6401H56.6511C56.6511 53.6401 56.4218 53.6401 56.3071 53.8203L32.7719 89.901C32.7719 89.901 32.3789 90.4088 33.0012 90.4088H37.6689C38.1767 90.4088 38.3896 90.0321 38.3896 90.0321L58.4199 59.4543L67.7226 73.9325H54.3909C54.0797 73.9325 53.8995 74.1454 53.7685 74.3747L51.9997 77.3391C51.7049 77.8305 52.1962 77.7813 52.4419 77.7813H70.212L78.1226 90.114C78.1226 90.114 78.2864 90.3924 78.6467 90.3924H83.7894C84.2807 90.3924 84.0187 90.0484 84.0187 90.0484L84.0023 90.0812Z" fill="#FFFFFF"/>
<path d="M226.246 86.5928H197.699C195.308 86.5928 193.375 84.6602 193.375 82.269V72.1638H226.295C226.295 72.1638 226.639 72.1638 226.639 71.7871V68.6753C226.639 68.2658 226.246 68.2986 226.246 68.2986H193.375V57.5055H226.295C226.295 57.5055 226.639 57.5055 226.639 57.1288V54.017C226.639 53.6075 226.246 53.6403 226.246 53.6403H189.002C188.724 53.6403 188.757 53.9187 188.757 53.9187V82.1871C188.757 86.7402 192.458 90.4417 197.028 90.4417H226.328C226.328 90.4417 226.672 90.4416 226.672 90.0649V86.9531C226.672 86.5437 226.279 86.5764 226.279 86.5764L226.246 86.5928Z" fill="#FFFFFF"/>
<path d="M183.4 86.5928H154.854C152.462 86.5928 150.53 84.6602 150.53 82.269V72.1638H183.45C183.45 72.1638 183.793 72.1638 183.793 71.7871V68.6753C183.793 68.2658 183.4 68.2986 183.4 68.2986H150.53V57.5055H183.45C183.45 57.5055 183.793 57.5055 183.793 57.1288V54.017C183.793 53.6075 183.4 53.6403 183.4 53.6403H146.157C145.878 53.6403 145.911 53.9187 145.911 53.9187V82.1871C145.911 86.7402 149.613 90.4417 154.182 90.4417H183.482C183.482 90.4417 183.826 90.4416 183.826 90.0649V86.9531C183.826 86.5437 183.433 86.5764 183.433 86.5764L183.4 86.5928Z" fill="#FFFFFF"/>
</svg>
